<svg xmlns="http://www.w3.org/2000/svg" width="209" height="35" viewBox="0 0 209 35">
  <g id="Grupo_175" data-name="Grupo 175" transform="translate(-50 -30)">
    <g id="Grupo_1" data-name="Grupo 1" transform="translate(-5 -5.5)">
      <text id="TRAVEL" transform="translate(105 61.5)" fill="#fff" font-size="25" font-family="Montserrat-Light, Montserrat" font-weight="300"><tspan x="0" y="0">TRAVEL</tspan></text>
      <text id="JOY" transform="translate(212 61.5)" fill="#fff" font-size="25" font-family="Montserrat-Bold, Montserrat" font-weight="700"><tspan x="0" y="0">JOY</tspan></text>
    </g>
    <path id="Subtração_1" data-name="Subtração 1" d="M17.5,35a17.779,17.779,0,0,1-1.789-.09,17.543,17.543,0,0,1-1.737-.265c-.564-.115-1.128-.26-1.677-.431s-1.084-.367-1.608-.588-1.034-.468-1.53-.737-.978-.562-1.443-.877S6.8,31.36,6.369,31s-.848-.735-1.243-1.13S4.352,29.061,4,28.631s-.695-.885-1.008-1.348-.609-.951-.877-1.443-.517-1.011-.737-1.53S.956,23.245.787,22.7.471,21.588.356,21.024A17.558,17.558,0,0,1,.09,19.285a17.762,17.762,0,0,1,0-3.579,17.528,17.528,0,0,1,.265-1.737c.115-.564.26-1.128.431-1.676s.367-1.083.589-1.607.468-1.033.737-1.529.562-.978.877-1.442S3.641,6.8,4,6.367s.735-.848,1.13-1.242S5.939,4.35,6.369,4,7.253,3.3,7.716,2.988s.95-.609,1.443-.876,1.011-.517,1.53-.737S11.754.955,12.3.787,13.41.471,13.974.355A17.545,17.545,0,0,1,15.711.09a17.76,17.76,0,0,1,3.578,0,17.544,17.544,0,0,1,1.737.265c.564.115,1.128.26,1.677.431s1.084.367,1.608.588,1.034.467,1.53.737.978.562,1.443.876S28.2,3.64,28.631,4s.848.735,1.243,1.129.775.812,1.13,1.242.695.884,1.007,1.347.609.95.877,1.442.517,1.01.737,1.529.42,1.065.589,1.607.316,1.113.431,1.676a17.528,17.528,0,0,1,.265,1.737,17.763,17.763,0,0,1,0,3.579,17.56,17.56,0,0,1-.265,1.739c-.115.564-.26,1.129-.431,1.678s-.367,1.084-.589,1.608-.468,1.034-.737,1.53-.562.978-.877,1.443S31.359,28.2,31,28.631s-.735.848-1.13,1.243-.813.775-1.243,1.13-.884.695-1.347,1.008-.95.609-1.443.877-1.011.517-1.53.737-1.065.42-1.608.588-1.113.316-1.677.431a17.544,17.544,0,0,1-1.737.265A17.78,17.78,0,0,1,17.5,35ZM2.132,10.879a16.594,16.594,0,0,0-1.31,5.3l-.01.081c-.005.052-.008.1-.01.157h0c0,.051-.005.1-.01.157v.142l-.01.244-.01.244v.294c0,.537.016.941.051,1.309v.01l.02.258v.014l.01.124A16.719,16.719,0,0,0,30.5,27.978v-.862l-.649-.873v-1.37l-.5-.487-.051-.568.64-1.207-1.2-2.111.142-1.431-1.076-.112-.406-.406h-.721l-.365.345H25.042L25,19.007h-.711L22.657,17.15l.02-1.441.264-.1.1-.558h-.386l-.152-.579,1.888-1.36v-.964l.924-.507.366.03h.761l.6-.315L28.95,11.2v.984l1.523.375.295.213h.274v-.528l.873-.081.832.609h.782c-.127-.426-.289-.89-.5-1.421h-.183l-.447-.487-.081-.792-.457.253-.244.964-.66-.71-.03-.66-.64-.548-.234-.234h-.741l.234.66.893.5.152.163-.193.091.01.528-.436.183-.365-.081-.234-.335.6.04.162-.223-1.33-.9-.1-.375-.538.487-.548-.112-.832,1.086-.173.426-.528.041-.792.01-.477-.223-.132-.933.163-.446.812-.183.873.183.112-.487-.376-.092.122-.751.883-.142.619-.873.639-.1.579.081h.2L29.2,6.535l-.7.284-.244-.609-.406-.061-.081-.416.335-.355.619-.243A16.729,16.729,0,0,0,8.05,3.7h.619l.386.213.721.152.051.284,1.157.041-.163-.365L9.806,4l.233-.223L9.958,3.5H9.034l1-.751H11l.457.629.751.041.457-.446L13,3.146l-.619.609-.824.02h0a2.921,2.921,0,0,1,.071.589l1.045-.02.112-.284.721-.051.091-.416-.426-.081.142-.376.325-.1L14.78,3.1l-.63.568.1.436.649.1-.041-.8.629-.325L16.6,2.953l1.594.71v.609l.517.122-.264.487h-.721l-.213.548-1.654-.386,1.3-.7-.487-.416-1.127.142-.091.1h-.01l-.01.02-.325.335-.538.051.041.264.193.071L14.79,5l-.436.061-.03.253-.416.02-.071-.5-.741.223-1.523.893.173.619.426.284.842.112v.974l.4-.071.365-.751.9-.284V5.673l.5-.376,1.218.284-.081.771h.325l.893-.436.041,1,.65.4-.03.6-.619.2.041.2.751.345-.01.406-.223.02v-.01l-.944-.294-.041-.3.274-.193V8.017l-.294-.081-.081.264-.518.081-.051-.02v.03l-.183.02-.152-.294-.163-.081-.376.01-.172.132v.315l.325.1.314.041L16,8.575,15.7,8.89l-.122-.163-.274-.071-.761.71.1.081-1.117.619-1.046,1.086-.081.487-1.046.69-.528.528.061,1.045-.721-.335v-.609H8.162l-1.045.528-.447.832-.183.66.294.649.822.092,1.3-.873.122.436-.406.751.995.173.1,1.532,1.36.234.863-1,1.056.213.365.518,1-.061.03-.294.558.264.619.974,1.076.02.4.69.061.853,1.188.457,1.5.01.447.731.66.213-.122.589-.731.933-.213,2.05-.659.517-.975-.02-.335.558.244,1.066-1.066,1.36-.335.629-1.015.487-.67.1-.02.284.467.132-.061.3-.416.406.254.315.508.02-.031.386-.132.386-.051.3.751.629-.1.325-1.015-.01-1.005-.883-.792-1.38.112-1.339-.6-.792.244-1.35-.355-.1V24.548c-.01-.008-1-.761-1.046-.761s-.523-.121-.528-.122l-.1-.558L9.816,21.493l.132-.578.041-.954.894-.619-.132-1.065-1.3-.1L8.425,17.018l-.721-.2-.467-.081.051-.426L6.7,16.216v.244l-1.492-.375-.6-.914.244-.446-.944-1.37-.162-1H3.36l.132.974.65,1-.071.4-.548-.081-.68-1.157v-1.35l-.711-.345Z" transform="translate(50 30)" fill="#fff"/>
  </g>
</svg>
